<?xml version="1.0" encoding="UTF-8" standalone="no"?>
<!-- Created with Inkscape (http://www.inkscape.org/) -->

<svg
   xmlns:dc="http://purl.org/dc/elements/1.1/"
   xmlns:cc="http://creativecommons.org/ns#"
   xmlns:rdf="http://www.w3.org/1999/02/22-rdf-syntax-ns#"
   xmlns:svg="http://www.w3.org/2000/svg"
   xmlns="http://www.w3.org/2000/svg"
   xmlns:xlink="http://www.w3.org/1999/xlink"
   xmlns:sodipodi="http://sodipodi.sourceforge.net/DTD/sodipodi-0.dtd"
   xmlns:inkscape="http://www.inkscape.org/namespaces/inkscape"
   width="749.02814"
   height="1010.7642"
   viewBox="0 0 198.18036 267.43136"
   version="1.1"
   id="svg1479"
   inkscape:version="0.92.3 (unknown)"
   sodipodi:docname="calculator.svg">
  <defs
     id="defs1473">
    <radialGradient
       inkscape:collect="always"
       xlink:href="#linearGradient1212"
       id="radialGradient1218"
       gradientUnits="userSpaceOnUse"
       gradientTransform="translate(-99.499506,-2.1381562)"
       cx="156.88721"
       cy="126.74931"
       fx="156.88721"
       fy="126.74931"
       r="23.252449" />
    <linearGradient
       inkscape:collect="always"
       id="linearGradient1212">
      <stop
         style="stop-color:#ff00ff;stop-opacity:1;"
         offset="0"
         id="stop1208" />
      <stop
         style="stop-color:#ff00ff;stop-opacity:0;"
         offset="1"
         id="stop1210" />
    </linearGradient>
    <radialGradient
       inkscape:collect="always"
       xlink:href="#linearGradient1212"
       id="radialGradient1214"
       cx="156.88721"
       cy="126.74931"
       fx="156.88721"
       fy="126.74931"
       r="23.252449"
       gradientUnits="userSpaceOnUse"
       gradientTransform="translate(-1.6036172,-2.1381562)" />
    <linearGradient
       inkscape:collect="always"
       xlink:href="#linearGradient1104"
       id="linearGradient1106"
       x1="89.958336"
       y1="212.33333"
       x2="121.70834"
       y2="212.33333"
       gradientUnits="userSpaceOnUse" />
    <linearGradient
       inkscape:collect="always"
       id="linearGradient1104">
      <stop
         style="stop-color:#572d11;stop-opacity:1;"
         offset="0"
         id="stop1100" />
      <stop
         id="stop1108"
         offset="0.5"
         style="stop-color:#3d1800;stop-opacity:1" />
      <stop
         style="stop-color:#572d11;stop-opacity:1"
         offset="1"
         id="stop1102" />
    </linearGradient>
    <inkscape:path-effect
       end_linecap_type="zerowidth"
       miter_limit="4"
       linejoin_type="extrp_arc"
       start_linecap_type="zerowidth"
       interpolator_beta="0.2"
       interpolator_type="CubicBezierJohan"
       sort_points="true"
       offset_points="1,0.13229166"
       is_visible="true"
       id="path-effect855"
       effect="powerstroke" />
    <inkscape:path-effect
       effect="powerstroke"
       id="path-effect851"
       is_visible="true"
       offset_points="1,0.13229166"
       sort_points="true"
       interpolator_type="CubicBezierJohan"
       interpolator_beta="0.2"
       start_linecap_type="zerowidth"
       linejoin_type="extrp_arc"
       miter_limit="4"
       end_linecap_type="zerowidth" />
  </defs>
  <sodipodi:namedview
     id="base"
     pagecolor="#ffffff"
     bordercolor="#666666"
     borderopacity="1.0"
     inkscape:pageopacity="0.0"
     inkscape:pageshadow="2"
     inkscape:zoom="0.35"
     inkscape:cx="190.22835"
     inkscape:cy="525.38208"
     inkscape:document-units="mm"
     inkscape:current-layer="layer1"
     showgrid="false"
     units="px" />
  <metadata
     id="metadata1476">
    <rdf:RDF>
      <cc:Work
         rdf:about="">
        <dc:format>image/svg+xml</dc:format>
        <dc:type
           rdf:resource="http://purl.org/dc/dcmitype/StillImage" />
        <dc:title></dc:title>
      </cc:Work>
    </rdf:RDF>
  </metadata>
  <g
     inkscape:label="Layer 1"
     inkscape:groupmode="layer"
     id="layer1"
     transform="translate(-70.243154,-20.409308)">
    <g
       transform="translate(63.561416,9.559308)"
       id="g1387">
      <rect
         ry="1.1535559e-06"
         y="64.166664"
         x="35.529762"
         height="89.385811"
         width="139.85118"
         id="rect1186"
         style="opacity:1;fill:#eab276;fill-opacity:1;fill-rule:evenodd;stroke:none;stroke-width:2.0368762;stroke-linecap:round;stroke-linejoin:miter;stroke-miterlimit:4;stroke-dasharray:none;stroke-dashoffset:0;stroke-opacity:1" />
      <circle
         style="opacity:1;fill:url(#radialGradient1218);fill-opacity:1;fill-rule:evenodd;stroke:none;stroke-width:2;stroke-linecap:round;stroke-linejoin:miter;stroke-miterlimit:4;stroke-dasharray:none;stroke-dashoffset:0;stroke-opacity:1"
         id="circle1216"
         cx="57.388062"
         cy="124.61116"
         r="23.252449" />
      <circle
         r="23.252449"
         cy="124.61116"
         cx="155.28358"
         id="path1190"
         style="opacity:1;fill:url(#radialGradient1214);fill-opacity:1;fill-rule:evenodd;stroke:none;stroke-width:2;stroke-linecap:round;stroke-linejoin:miter;stroke-miterlimit:4;stroke-dasharray:none;stroke-dashoffset:0;stroke-opacity:1" />
      <g
         transform="matrix(-1,0,0,1,211.554,0)"
         id="g1162">
        <path
           inkscape:connector-curvature="0"
           id="path1146"
           d="m 35.814116,140.11279 0.267269,15.7689 68.955535,4.81085 -1.06908,-8.01809 -13.89801,-12.82893 -6.68174,-0.26727 -17.639786,5.61266 -13.096208,-1.33635 z"
           style="fill:#ffcc00;fill-rule:evenodd;stroke:none;stroke-width:0.26458332px;stroke-linecap:butt;stroke-linejoin:miter;stroke-opacity:1" />
        <g
           id="g1160">
          <path
             style="fill:none;fill-rule:evenodd;stroke:#000000;stroke-width:2;stroke-linecap:butt;stroke-linejoin:miter;stroke-miterlimit:4;stroke-dasharray:none;stroke-opacity:1"
             d="m 105.83333,155.71251 c 0,0 -8.712555,-13.70639 -15.874998,-15.875 -8.608185,-2.60635 -17.464229,5.29167 -26.458333,5.29167 -8.994104,0 -26.458333,-5.29167 -26.458333,-5.29167 v 0"
             id="path1148"
             inkscape:connector-curvature="0"
             sodipodi:nodetypes="caaac" />
          <path
             sodipodi:nodetypes="caasc"
             inkscape:connector-curvature="0"
             id="path1150"
             d="m 105.83333,165.76674 c 0,0 -9.215521,-16.65389 -17.478615,-19.3495 -8.21868,-2.68113 -16.744445,5.34035 -25.389255,5.29167 -9.030595,-0.0509 -17.047074,-5.185 -26.458333,-5.82621 -3.257973,-0.22198 -1.069078,1.33634 -1.069078,1.33634"
             style="fill:none;fill-rule:evenodd;stroke:#000000;stroke-width:1;stroke-linecap:butt;stroke-linejoin:miter;stroke-miterlimit:4;stroke-dasharray:none;stroke-opacity:1" />
          <path
             style="fill:none;fill-rule:evenodd;stroke:#000000;stroke-width:1;stroke-linecap:butt;stroke-linejoin:miter;stroke-miterlimit:4;stroke-dasharray:none;stroke-opacity:1"
             d="m 105.83333,162.06255 c 0,0 -9.459266,-15.62834 -17.478615,-18.01316 -8.05408,-2.39514 -16.185427,5.4541 -24.587446,5.55894 -9.44764,0.11789 -18.444135,-4.20281 -27.794681,-5.55894 -0.973841,-0.14124 -2.939965,-0.26727 -2.939965,-0.26727"
             id="path1152"
             inkscape:connector-curvature="0"
             sodipodi:nodetypes="caaac" />
          <path
             sodipodi:nodetypes="caaac"
             inkscape:connector-curvature="0"
             id="path1154"
             d="m 105.83333,158.88753 c 0,0 -8.825144,-14.10054 -16.142268,-16.40954 -8.811462,-2.78055 -18.020995,5.13164 -27.260141,5.0244 -8.644365,-0.10033 -16.94945,-3.41955 -25.389255,-5.29167 -1.518966,-0.33694 -4.543582,-1.06908 -4.543582,-1.06908"
             style="fill:none;fill-rule:evenodd;stroke:#000000;stroke-width:1;stroke-linecap:butt;stroke-linejoin:miter;stroke-miterlimit:4;stroke-dasharray:none;stroke-opacity:1" />
          <path
             style="fill:none;fill-rule:evenodd;stroke:#000000;stroke-width:1;stroke-linecap:butt;stroke-linejoin:miter;stroke-miterlimit:4;stroke-dasharray:none;stroke-opacity:1"
             d="m 105.83333,172.11678 c 0,0 -11.638495,-19.95572 -21.754928,-22.28947 -6.639033,-1.53155 -12.445507,6.41639 -19.242055,6.89529 -8.710586,0.61376 -25.656525,-5.29167 -25.656525,-5.29167 l -4.810851,5.07812"
             id="path1156"
             inkscape:connector-curvature="0"
             sodipodi:nodetypes="caacc" />
          <path
             sodipodi:nodetypes="caacc"
             inkscape:connector-curvature="0"
             id="path1158"
             d="m 105.83333,168.94176 c 0,0 -10.40651,-18.36274 -19.616771,-20.95312 -7.652356,-2.15222 -15.039813,6.07227 -22.98383,6.36075 -8.534208,0.30991 -25.121985,-5.0244 -25.121985,-5.0244 l -3.207234,2.13815"
             style="fill:none;fill-rule:evenodd;stroke:#000000;stroke-width:1;stroke-linecap:butt;stroke-linejoin:miter;stroke-miterlimit:4;stroke-dasharray:none;stroke-opacity:1" />
        </g>
      </g>
      <g
         id="g1144">
        <path
           style="fill:#ffcc00;fill-rule:evenodd;stroke:none;stroke-width:0.26458332px;stroke-linecap:butt;stroke-linejoin:miter;stroke-opacity:1"
           d="m 35.814116,140.11279 0.267269,15.7689 68.955535,4.81085 -1.06908,-8.01809 -13.89801,-12.82893 -6.68174,-0.26727 -17.639786,5.61266 -13.096208,-1.33635 z"
           id="path1134"
           inkscape:connector-curvature="0" />
        <g
           id="g1132">
          <path
             sodipodi:nodetypes="caaac"
             inkscape:connector-curvature="0"
             id="path1114"
             d="m 105.83333,155.71251 c 0,0 -8.712555,-13.70639 -15.874998,-15.875 -8.608185,-2.60635 -17.464229,5.29167 -26.458333,5.29167 -8.994104,0 -26.458333,-5.29167 -26.458333,-5.29167 v 0"
             style="fill:none;fill-rule:evenodd;stroke:#000000;stroke-width:2;stroke-linecap:butt;stroke-linejoin:miter;stroke-miterlimit:4;stroke-dasharray:none;stroke-opacity:1" />
          <path
             style="fill:none;fill-rule:evenodd;stroke:#000000;stroke-width:1;stroke-linecap:butt;stroke-linejoin:miter;stroke-miterlimit:4;stroke-dasharray:none;stroke-opacity:1"
             d="m 105.83333,165.76674 c 0,0 -9.215521,-16.65389 -17.478615,-19.3495 -8.21868,-2.68113 -16.744445,5.34035 -25.389255,5.29167 -9.030595,-0.0509 -17.047074,-5.185 -26.458333,-5.82621 -3.257973,-0.22198 -1.069078,1.33634 -1.069078,1.33634"
             id="path1116"
             inkscape:connector-curvature="0"
             sodipodi:nodetypes="caasc" />
          <path
             sodipodi:nodetypes="caaac"
             inkscape:connector-curvature="0"
             id="path1118"
             d="m 105.83333,162.06255 c 0,0 -9.459266,-15.62834 -17.478615,-18.01316 -8.05408,-2.39514 -16.185427,5.4541 -24.587446,5.55894 -9.44764,0.11789 -18.444135,-4.20281 -27.794681,-5.55894 -0.973841,-0.14124 -2.939965,-0.26727 -2.939965,-0.26727"
             style="fill:none;fill-rule:evenodd;stroke:#000000;stroke-width:1;stroke-linecap:butt;stroke-linejoin:miter;stroke-miterlimit:4;stroke-dasharray:none;stroke-opacity:1" />
          <path
             style="fill:none;fill-rule:evenodd;stroke:#000000;stroke-width:1;stroke-linecap:butt;stroke-linejoin:miter;stroke-miterlimit:4;stroke-dasharray:none;stroke-opacity:1"
             d="m 105.83333,158.88753 c 0,0 -8.825144,-14.10054 -16.142268,-16.40954 -8.811462,-2.78055 -18.020995,5.13164 -27.260141,5.0244 -8.644365,-0.10033 -16.94945,-3.41955 -25.389255,-5.29167 -1.518966,-0.33694 -4.543582,-1.06908 -4.543582,-1.06908"
             id="path1120"
             inkscape:connector-curvature="0"
             sodipodi:nodetypes="caaac" />
          <path
             sodipodi:nodetypes="caacc"
             inkscape:connector-curvature="0"
             id="path1122"
             d="m 105.83333,172.11678 c 0,0 -11.638495,-19.95572 -21.754928,-22.28947 -6.639033,-1.53155 -12.445507,6.41639 -19.242055,6.89529 -8.710586,0.61376 -25.656525,-5.29167 -25.656525,-5.29167 l -4.810851,5.07812"
             style="fill:none;fill-rule:evenodd;stroke:#000000;stroke-width:1;stroke-linecap:butt;stroke-linejoin:miter;stroke-miterlimit:4;stroke-dasharray:none;stroke-opacity:1" />
          <path
             style="fill:none;fill-rule:evenodd;stroke:#000000;stroke-width:1;stroke-linecap:butt;stroke-linejoin:miter;stroke-miterlimit:4;stroke-dasharray:none;stroke-opacity:1"
             d="m 105.83333,168.94176 c 0,0 -10.40651,-18.36274 -19.616771,-20.95312 -7.652356,-2.15222 -15.039813,6.07227 -22.98383,6.36075 -8.534208,0.30991 -25.121985,-5.0244 -25.121985,-5.0244 l -3.207234,2.13815"
             id="path1124"
             inkscape:connector-curvature="0"
             sodipodi:nodetypes="caacc" />
        </g>
      </g>
      <path
         sodipodi:nodetypes="cacccc"
         inkscape:connector-curvature="0"
         id="path1098"
         d="m 89.958335,159.41667 c 0,0 10.291405,-5.34539 15.874995,-5.34539 5.5836,0 15.875,5.34539 15.875,5.34539 V 275.83333 H 89.958332 Z"
         style="fill:url(#linearGradient1106);fill-opacity:1;fill-rule:evenodd;stroke:#ffffff;stroke-width:3;stroke-linecap:butt;stroke-linejoin:miter;stroke-miterlimit:4;stroke-dasharray:none;stroke-opacity:1" />
      <path
         sodipodi:nodetypes="ccccccc"
         inkscape:connector-curvature="0"
         id="path1110"
         d="m 34.402963,148.87112 55.521378,10.57703 v 116.34719 l -41.938565,-1.06908 -9.573771,-7.77068 -4.009042,-12.31428 z"
         style="fill:#aa4400;fill-rule:evenodd;stroke:#000000;stroke-width:3.07203054;stroke-linecap:butt;stroke-linejoin:miter;stroke-miterlimit:4;stroke-dasharray:none;stroke-opacity:1" />
      <path
         sodipodi:nodetypes="ccccccc"
         style="fill:#aa4400;fill-rule:evenodd;stroke:#000000;stroke-width:3.07203054;stroke-linecap:butt;stroke-linejoin:miter;stroke-miterlimit:4;stroke-dasharray:none;stroke-opacity:1"
         d="m 177.23733,148.87112 -55.52169,10.57703 v 116.34719 h 38.86518 l 11.57839,-6.56798 5.07812,-14.58606 z"
         id="path1112"
         inkscape:connector-curvature="0" />
      <rect
         transform="scale(-1,1)"
         style="opacity:1;fill:#eab276;fill-opacity:1;fill-rule:evenodd;stroke:#000000;stroke-width:2;stroke-linecap:round;stroke-linejoin:miter;stroke-miterlimit:4;stroke-dasharray:none;stroke-dashoffset:0;stroke-opacity:1"
         id="rect1174"
         width="33.050449"
         height="10.610932"
         x="-191.80687"
         y="183.68387"
         ry="5.3054662" />
      <rect
         transform="scale(-1,1)"
         ry="5.3054662"
         y="194.36024"
         x="-189.56834"
         height="10.610932"
         width="33.050449"
         id="rect1176"
         style="opacity:1;fill:#eab276;fill-opacity:1;fill-rule:evenodd;stroke:#000000;stroke-width:2;stroke-linecap:round;stroke-linejoin:miter;stroke-miterlimit:4;stroke-dasharray:none;stroke-dashoffset:0;stroke-opacity:1" />
      <rect
         transform="scale(-1,1)"
         style="opacity:1;fill:#eab276;fill-opacity:1;fill-rule:evenodd;stroke:#000000;stroke-width:2;stroke-linecap:round;stroke-linejoin:miter;stroke-miterlimit:4;stroke-dasharray:none;stroke-dashoffset:0;stroke-opacity:1"
         id="rect1178"
         width="33.050449"
         height="10.610932"
         x="-193.52885"
         y="204.8644"
         ry="5.3054662" />
      <rect
         transform="scale(-1,1)"
         ry="5.3054662"
         y="215.36855"
         x="-196.28412"
         height="10.610932"
         width="33.050449"
         id="rect1180"
         style="opacity:1;fill:#eab276;fill-opacity:1;fill-rule:evenodd;stroke:#000000;stroke-width:2;stroke-linecap:round;stroke-linejoin:miter;stroke-miterlimit:4;stroke-dasharray:none;stroke-dashoffset:0;stroke-opacity:1" />
      <rect
         ry="5.2916641"
         y="75.27916"
         x="42.333332"
         height="31.749998"
         width="52.916668"
         id="rect845"
         style="opacity:1;fill:#ffffff;fill-opacity:0.99537036;stroke:#000000;stroke-width:5;stroke-linecap:round;stroke-linejoin:miter;stroke-miterlimit:4;stroke-dasharray:none;stroke-dashoffset:0;stroke-opacity:1" />
      <path
         style="fill:#000000;fill-rule:nonzero;stroke:#000000;stroke-width:5;stroke-linecap:butt;stroke-linejoin:miter;stroke-miterlimit:4;stroke-dasharray:none;stroke-opacity:1"
         d="m 177.42912,75.90186 c -1.20953,1.133929 -4.9286,4.439202 -6.13813,5.573131 0,0 0.0905,0.09651 0.0905,0.09651 0,0 0.0905,0.09651 0.0905,0.09651 1.20953,-1.133929 4.74764,-4.632226 5.95717,-5.766155 z"
         id="path853"
         inkscape:connector-curvature="0"
         inkscape:path-effect="#path-effect855"
         inkscape:original-d="m 177.42912,75.90186 -6.04765,5.669643"
         sodipodi:nodetypes="cc" />
      <path
         sodipodi:nodetypes="cc"
         inkscape:original-d="m 35.058328,75.90186 6.047616,5.669643"
         inkscape:path-effect="#path-effect851"
         inkscape:connector-curvature="0"
         id="path849"
         d="m 35.058328,75.90186 c 1.209523,1.133929 4.747613,4.632226 5.957136,5.766155 0,0 0.09048,-0.09651 0.09048,-0.09651 0,0 0.09048,-0.09651 0.09048,-0.09651 -1.209523,-1.133928 -4.928573,-4.439202 -6.138096,-5.573131 z"
         style="fill:#000000;fill-rule:nonzero;stroke:#000000;stroke-width:5;stroke-linecap:butt;stroke-linejoin:miter;stroke-miterlimit:4;stroke-dasharray:none;stroke-opacity:1" />
      <rect
         ry="5.3054662"
         y="183.68387"
         x="19.179258"
         height="10.610932"
         width="33.050449"
         id="rect1166"
         style="opacity:1;fill:#eab276;fill-opacity:1;fill-rule:evenodd;stroke:#000000;stroke-width:2;stroke-linecap:round;stroke-linejoin:miter;stroke-miterlimit:4;stroke-dasharray:none;stroke-dashoffset:0;stroke-opacity:1" />
      <rect
         style="opacity:1;fill:#eab276;fill-opacity:1;fill-rule:evenodd;stroke:#000000;stroke-width:2;stroke-linecap:round;stroke-linejoin:miter;stroke-miterlimit:4;stroke-dasharray:none;stroke-dashoffset:0;stroke-opacity:1"
         id="rect1168"
         width="33.050449"
         height="10.610932"
         x="21.417868"
         y="194.36024"
         ry="5.3054662" />
      <rect
         ry="5.3054662"
         y="204.8644"
         x="17.457273"
         height="10.610932"
         width="33.050449"
         id="rect1170"
         style="opacity:1;fill:#eab276;fill-opacity:1;fill-rule:evenodd;stroke:#000000;stroke-width:2;stroke-linecap:round;stroke-linejoin:miter;stroke-miterlimit:4;stroke-dasharray:none;stroke-dashoffset:0;stroke-opacity:1" />
      <rect
         style="opacity:1;fill:#eab276;fill-opacity:1;fill-rule:evenodd;stroke:#000000;stroke-width:2;stroke-linecap:round;stroke-linejoin:miter;stroke-miterlimit:4;stroke-dasharray:none;stroke-dashoffset:0;stroke-opacity:1"
         id="rect1172"
         width="33.050449"
         height="10.610932"
         x="14.702004"
         y="215.36855"
         ry="5.3054662" />
      <path
         inkscape:connector-curvature="0"
         id="rect821"
         d="m 55.040944,15.764139 c -11.239944,0 -20.288709,9.280038 -20.288709,20.80726 V 255.04761 c 0,11.5272 9.048765,20.80724 20.288709,20.80724 H 156.48449 c 11.23994,0 20.2887,-9.28004 20.2887,-20.80724 V 36.571399 c 0,-11.527222 -9.04876,-20.80726 -20.2887,-20.80726 z"
         style="opacity:1;fill:none;fill-opacity:0.99537036;stroke:#fee115;stroke-width:4.85300016;stroke-linecap:round;stroke-linejoin:miter;stroke-miterlimit:4;stroke-dasharray:none;stroke-dashoffset:0;stroke-opacity:1" />
      <rect
         y="11.25"
         x="21.166666"
         height="10.583336"
         width="169.33333"
         id="rect819"
         style="opacity:1;fill:#000000;fill-opacity:0.99537036;stroke:#000000;stroke-width:0.80000001;stroke-linecap:round;stroke-linejoin:miter;stroke-miterlimit:4;stroke-dasharray:none;stroke-dashoffset:0;stroke-opacity:1" />
      <path
         sodipodi:nodetypes="cccccccccccc"
         inkscape:connector-curvature="0"
         id="rect838"
         d="M 31.750001,21.833332 H 179.91667 v 1e-6 42.33333 10e-7 0 l -74.08333,9.071429 -74.083339,-9.071429 v 0 l -1e-6,-10e-7 v -42.33333 z"
         style="opacity:1;fill:#550000;fill-opacity:0.99537036;stroke:none;stroke-width:5;stroke-linecap:round;stroke-linejoin:miter;stroke-miterlimit:4;stroke-dasharray:none;stroke-dashoffset:0;stroke-opacity:1" />
      <rect
         ry="1.2715664e-06"
         y="21.833334"
         x="31.75"
         height="42.333332"
         width="10.583333"
         id="rect840"
         style="opacity:1;fill:#2b0000;fill-opacity:0.99537036;stroke:none;stroke-width:5;stroke-linecap:round;stroke-linejoin:miter;stroke-miterlimit:4;stroke-dasharray:none;stroke-dashoffset:0;stroke-opacity:1" />
      <rect
         style="opacity:1;fill:#2b0000;fill-opacity:0.99537036;stroke:none;stroke-width:5;stroke-linecap:round;stroke-linejoin:miter;stroke-miterlimit:4;stroke-dasharray:none;stroke-dashoffset:0;stroke-opacity:1"
         id="rect842"
         width="10.583333"
         height="42.333332"
         x="169.33333"
         y="21.833336"
         ry="1.2715664e-06" />
      <rect
         style="opacity:1;fill:#ffffff;fill-opacity:0.99537036;stroke:#000000;stroke-width:5;stroke-linecap:round;stroke-linejoin:miter;stroke-miterlimit:4;stroke-dasharray:none;stroke-dashoffset:0;stroke-opacity:1"
         id="rect847"
         width="52.916668"
         height="31.749998"
         x="116.41666"
         y="75.27916"
         ry="5.2916641" />
      <rect
         ry="3.3408689"
         y="109.47888"
         x="43.030396"
         height="6.6817379"
         width="124.81487"
         id="rect871"
         style="opacity:1;fill:none;fill-opacity:0.99537036;stroke:none;stroke-width:2;stroke-linecap:round;stroke-linejoin:miter;stroke-miterlimit:4;stroke-dasharray:none;stroke-dashoffset:0;stroke-opacity:1" />
      <g
         transform="matrix(0.82725541,0,0,1.0047637,11.605172,-53.451979)"
         id="g962">
        <path
           style="opacity:1;fill:#00aad4;fill-opacity:0.99537036;stroke:#000000;stroke-width:1.5;stroke-linecap:round;stroke-linejoin:miter;stroke-miterlimit:4;stroke-dasharray:none;stroke-dashoffset:0;stroke-opacity:1"
           d="m 74.839058,129.93433 a 20.410714,20.410714 0 0 0 -20.410634,20.41064 20.410714,20.410714 0 0 0 1.629357,7.9375 h 37.585307 a 20.410714,20.410714 0 0 0 1.60713,-7.9375 20.410714,20.410714 0 0 0 -20.41116,-20.41064 z"
           id="circle943"
           inkscape:connector-curvature="0" />
        <path
           style="opacity:1;fill:#006680;fill-opacity:0.99537036;stroke:#000000;stroke-width:1.28536439;stroke-linecap:round;stroke-linejoin:miter;stroke-miterlimit:4;stroke-dasharray:none;stroke-dashoffset:0;stroke-opacity:1"
           d="m 75.065989,139.65445 a 17.872198,17.116247 0 0 0 -17.87187,17.11627 17.872198,17.116247 0 0 0 0.0827,1.51205 h 35.58252 a 17.872198,17.116247 0 0 0 0.0791,-1.51205 17.872198,17.116247 0 0 0 -17.8724,-17.11627 z"
           id="circle945"
           inkscape:connector-curvature="0" />
      </g>
      <g
         id="g968"
         transform="matrix(0.82725541,0,0,1.0047637,76.163546,-53.451979)">
        <path
           inkscape:connector-curvature="0"
           id="path964"
           d="m 74.839058,129.93433 a 20.410714,20.410714 0 0 0 -20.410634,20.41064 20.410714,20.410714 0 0 0 1.629357,7.9375 h 37.585307 a 20.410714,20.410714 0 0 0 1.60713,-7.9375 20.410714,20.410714 0 0 0 -20.41116,-20.41064 z"
           style="opacity:1;fill:#00aad4;fill-opacity:0.99537036;stroke:#000000;stroke-width:1.5;stroke-linecap:round;stroke-linejoin:miter;stroke-miterlimit:4;stroke-dasharray:none;stroke-dashoffset:0;stroke-opacity:1" />
        <path
           inkscape:connector-curvature="0"
           id="path966"
           d="m 75.065989,139.65445 a 17.872198,17.116247 0 0 0 -17.87187,17.11627 17.872198,17.116247 0 0 0 0.0827,1.51205 h 35.58252 a 17.872198,17.116247 0 0 0 0.0791,-1.51205 17.872198,17.116247 0 0 0 -17.8724,-17.11627 z"
           style="opacity:1;fill:#006680;fill-opacity:0.99537036;stroke:#000000;stroke-width:1.28536439;stroke-linecap:round;stroke-linejoin:miter;stroke-miterlimit:4;stroke-dasharray:none;stroke-dashoffset:0;stroke-opacity:1" />
      </g>
      <g
         transform="translate(0,-10.054167)"
         id="g1093">
        <path
           style="fill:#ffffff;fill-rule:evenodd;stroke:#000000;stroke-width:2.26358581;stroke-linecap:butt;stroke-linejoin:miter;stroke-miterlimit:4;stroke-dasharray:none;stroke-opacity:1"
           d="m 47.625,125.02083 c 0,0 3.96875,0 7.9375,0 10.583333,-1.32291 9.293728,-5.76952 11.728522,-8.0376 6.104883,-5.72691 8.361027,-4.10853 13.294184,-2.47897 3.57634,1.18137 6.108064,6.13704 9.586161,8.47776 4.918773,3.31029 15.661963,5.08933 15.661963,5.08933 v 20.3573 c 0,0 -1.86453,-4.84697 -2.90866,-6.54341 -1.04413,-1.69646 -3.356132,-3.63524 -3.356132,-3.63524 0,0 -2.00128,4.00979 -2.00128,5.28212 0,1.89667 0.328575,2.65538 0.328575,2.65538 0,0 -3.480733,-1.84581 -3.480733,-4.39047 0,-2.54467 -1.111341,-3.54703 -1.111341,-3.54703 0,0 -2.085427,8.11385 -6.370551,9.54786 -6.248722,2.09112 -8.579994,-5.06026 -13.878123,-5.91262 -5.195243,-0.83583 -13.053452,5.03513 -18.234984,3.99875 -2.136406,-0.42732 -6.163765,-1.56332 -8.538316,-3.31955 -2.374547,-1.75623 -3.096285,-4.13267 -3.096285,-4.13267 0,0 2.535247,0.57557 3.579876,0.54527 1.043965,-0.0303 5.034198,-0.18175 3.579871,-1.09056 -1.826503,-1.14139 -2.46116,-2.18114 -2.46116,-2.18114 0,0 3.766328,-0.54529 4.810459,-0.54529 1.044131,0 3.02052,-1.99938 3.02052,-1.99938 0,0 -5.740774,-3.29286 -6.523873,-4.14109 -0.7831,-0.84821 -1.566193,-3.99875 -1.566193,-3.99875 z"
           id="path1040"
           inkscape:connector-curvature="0"
           sodipodi:nodetypes="cccssccscscscsssscsscscsc" />
        <path
           sodipodi:nodetypes="cccssccscscscsssscsscscsc"
           inkscape:connector-curvature="0"
           id="path1044"
           d="m 165.96452,125.02083 h -7.93755 c -10.58339,-1.32291 -9.29377,-5.76952 -11.72858,-8.0376 -6.10492,-5.72691 -8.36108,-4.10853 -13.29426,-2.47897 -3.57636,1.18137 -6.1081,6.13704 -9.58622,8.47776 -4.9188,3.31029 -15.66205,5.08933 -15.66205,5.08933 l -1.5119,21.11325 c 0,0 3.37644,-5.60292 4.42058,-7.29936 1.04413,-1.69646 3.35615,-3.63524 3.35615,-3.63524 0,0 2.00129,4.00979 2.00129,5.28212 0,1.89667 -0.32858,2.65538 -0.32858,2.65538 0,0 3.48076,-1.84581 3.48076,-4.39047 0,-2.54467 1.11134,-3.54703 1.11134,-3.54703 0,0 2.08544,8.11385 6.37059,9.54786 6.24876,2.09112 8.58004,-5.06026 13.8782,-5.91262 5.19527,-0.83583 13.05353,5.03513 18.23509,3.99875 2.13642,-0.42732 6.1638,-1.56332 8.53835,-3.31955 2.37455,-1.75623 3.09629,-4.13267 3.09629,-4.13267 0,0 -2.53525,0.57557 -3.57988,0.54527 -1.04396,-0.0303 -5.03422,-0.18175 -3.57988,-1.09056 1.82651,-1.14139 2.46117,-2.18114 2.46117,-2.18114 0,0 -3.76635,-0.54529 -4.81048,-0.54529 -1.04414,0 -3.02054,-1.99938 -3.02054,-1.99938 0,0 5.74081,-3.29286 6.52391,-4.14109 0.7831,-0.84821 1.5662,-3.99875 1.5662,-3.99875 z"
           style="fill:#ffffff;fill-rule:evenodd;stroke:#000000;stroke-width:2.26358581;stroke-linecap:butt;stroke-linejoin:miter;stroke-miterlimit:4;stroke-dasharray:none;stroke-opacity:1" />
        <path
           style="fill:#ffffff;fill-rule:evenodd;stroke:none;stroke-width:0.26458332px;stroke-linecap:butt;stroke-linejoin:miter;stroke-opacity:1"
           d="m 100.54167,133.14732 13.22916,-0.37798 -6.99256,13.41816 -1.70089,-3.02381 z"
           id="path1086"
           inkscape:connector-curvature="0" />
      </g>
      <path
         style="color:#000000;font-style:normal;font-variant:normal;font-weight:normal;font-stretch:normal;font-size:medium;line-height:normal;font-family:sans-serif;font-variant-ligatures:normal;font-variant-position:normal;font-variant-caps:normal;font-variant-numeric:normal;font-variant-alternates:normal;font-feature-settings:normal;text-indent:0;text-align:start;text-decoration:none;text-decoration-line:none;text-decoration-style:solid;text-decoration-color:#000000;letter-spacing:normal;word-spacing:normal;text-transform:none;writing-mode:lr-tb;direction:ltr;text-orientation:mixed;dominant-baseline:auto;baseline-shift:baseline;text-anchor:start;white-space:normal;shape-padding:0;clip-rule:nonzero;display:inline;overflow:visible;visibility:visible;opacity:1;isolation:auto;mix-blend-mode:normal;color-interpolation:sRGB;color-interpolation-filters:linearRGB;solid-color:#000000;solid-opacity:1;vector-effect:none;fill:#000000;fill-opacity:1;fill-rule:nonzero;stroke:none;stroke-width:4.78004742;stroke-linecap:butt;stroke-linejoin:miter;stroke-miterlimit:4;stroke-dasharray:none;stroke-dashoffset:0;stroke-opacity:1;color-rendering:auto;image-rendering:auto;shape-rendering:auto;text-rendering:auto;enable-background:accumulate"
         d="m 105.83333,122.9041 c -9.056673,0 -12.61458,-7.73095 -12.61458,-7.73095 l 2.03125,-4.1753 c 0,0 2.267542,6.90626 10.58333,6.90626 8.31579,0 10.58334,-6.90626 10.58334,-6.90626 l 2.03125,4.17529 c 0,0 -3.55791,7.73096 -12.61459,7.73096 z"
         id="path1025"
         inkscape:connector-curvature="0"
         sodipodi:nodetypes="sccsccs" />
      <path
         inkscape:connector-curvature="0"
         id="path970"
         d="m 105.8333,79.009908 a 14.395207,20.081996 0 0 0 -14.395576,20.081888 14.395207,20.081996 0 0 0 0.582141,5.612234 7.7658356,6.2550471 0 0 0 -0.392584,-0.0158 7.7658356,6.2550471 0 0 0 -7.765688,6.25499 7.7658356,6.2550471 0 0 0 7.765688,6.25498 7.7658356,6.2550471 0 0 0 5.655682,-1.97998 14.395207,20.081996 0 0 0 8.550337,3.95545 14.395207,20.081996 0 0 0 8.65703,-4.06077 7.7658356,6.2550471 0 0 0 5.77583,2.0853 7.7658356,6.2550471 0 0 0 7.7657,-6.25498 7.7658356,6.2550471 0 0 0 -7.7657,-6.25499 7.7658356,6.2550471 0 0 0 -0.62357,0.023 14.395207,20.081996 0 0 0 0.58577,-5.619434 14.395207,20.081996 0 0 0 -14.39506,-20.081892 z"
         style="opacity:1;fill:#eab276;fill-opacity:1;stroke:#000000;stroke-width:0.5;stroke-linecap:round;stroke-linejoin:miter;stroke-miterlimit:4;stroke-dasharray:none;stroke-dashoffset:0;stroke-opacity:1" />
      <path
         sodipodi:nodetypes="sccsccs"
         inkscape:connector-curvature="0"
         id="path1019"
         d="m 105.83333,75.27916 c -9.056673,0 -11.906247,3.96875 -11.906247,3.96875 l 2.03125,4.56836 c 0,0 1.559209,-3.066406 9.874997,-3.066406 8.31579,0 9.875,4.389323 9.875,4.389323 l 2.03125,-4.56836 c 0,0 -2.84957,-5.291667 -11.90625,-5.291667 z"
         style="color:#000000;font-style:normal;font-variant:normal;font-weight:normal;font-stretch:normal;font-size:medium;line-height:normal;font-family:sans-serif;font-variant-ligatures:normal;font-variant-position:normal;font-variant-caps:normal;font-variant-numeric:normal;font-variant-alternates:normal;font-feature-settings:normal;text-indent:0;text-align:start;text-decoration:none;text-decoration-line:none;text-decoration-style:solid;text-decoration-color:#000000;letter-spacing:normal;word-spacing:normal;text-transform:none;writing-mode:lr-tb;direction:ltr;text-orientation:mixed;dominant-baseline:auto;baseline-shift:baseline;text-anchor:start;white-space:normal;shape-padding:0;clip-rule:nonzero;display:inline;overflow:visible;visibility:visible;opacity:1;isolation:auto;mix-blend-mode:normal;color-interpolation:sRGB;color-interpolation-filters:linearRGB;solid-color:#000000;solid-opacity:1;vector-effect:none;fill:#000000;fill-opacity:1;fill-rule:nonzero;stroke:none;stroke-width:5;stroke-linecap:butt;stroke-linejoin:miter;stroke-miterlimit:4;stroke-dasharray:none;stroke-dashoffset:0;stroke-opacity:1;color-rendering:auto;image-rendering:auto;shape-rendering:auto;text-rendering:auto;enable-background:accumulate" />
      <rect
         ry="1.1121642e-06"
         y="176.72871"
         x="6.6817379"
         height="61.739254"
         width="25.657873"
         id="rect1182"
         style="opacity:1;fill:#ffffff;fill-opacity:1;fill-rule:evenodd;stroke:none;stroke-width:2.01049876;stroke-linecap:round;stroke-linejoin:miter;stroke-miterlimit:4;stroke-dasharray:none;stroke-dashoffset:0;stroke-opacity:1" />
      <rect
         style="opacity:1;fill:#ffffff;fill-opacity:1;fill-rule:evenodd;stroke:none;stroke-width:2.01049876;stroke-linecap:round;stroke-linejoin:miter;stroke-miterlimit:4;stroke-dasharray:none;stroke-dashoffset:0;stroke-opacity:1"
         id="rect1184"
         width="25.657873"
         height="61.739254"
         x="179.20422"
         y="174.99147"
         ry="1.1121642e-06" />
    </g>
  </g>
</svg>
